ModelForces
version=1
nRows=4
nColumns=155
inDegrees=no

This file contains the forces exerted on a model during a simulation.

A force is a generalized force, meaning that it can be either a force (N) or a torque (Nm).

Units are S.I. units (second, meters, Newtons, ...)
Angles are in degrees.

endheader
time	glut_med1_r	glut_med2_r	glut_med3_r	glut_min1_r	glut_min2_r	glut_min3_r	semimem_r	semiten_r	bifemlh_r	bifemsh_r	sar_r	add_long_r	add_brev_r	add_mag1_r	add_mag2_r	add_mag3_r	tfl_r	pect_r	grac_r	glut_max1_r	glut_max2_r	glut_max3_r	iliacus_r	psoas_r	quad_fem_r	gem_r	peri_r	rect_fem_r	vas_med_r	vas_int_r	vas_lat_r	med_gas_r	lat_gas_r	soleus_r	tib_post_r	flex_dig_r	flex_hal_r	tib_ant_r	per_brev_r	per_long_r	per_tert_r	ext_dig_r	ext_hal_r	glut_med1_l	glut_med2_l	glut_med3_l	glut_min1_l	glut_min2_l	glut_min3_l	semimem_l	semiten_l	bifemlh_l	bifemsh_l	sar_l	add_long_l	add_brev_l	add_mag1_l	add_mag2_l	add_mag3_l	tfl_l	pect_l	grac_l	glut_max1_l	glut_max2_l	glut_max3_l	iliacus_l	psoas_l	quad_fem_l	gem_l	peri_l	rect_fem_l	vas_med_l	vas_int_l	vas_lat_l	med_gas_l	lat_gas_l	soleus_l	tib_post_l	flex_dig_l	flex_hal_l	tib_ant_l	per_brev_l	per_long_l	per_tert_l	ext_dig_l	ext_hal_l	ercspn_r	ercspn_l	intobl_r	intobl_l	extobl_r	extobl_l	femur_lat_meniscii_r.femur_lat_r.force.X	femur_lat_meniscii_r.femur_lat_r.force.Y	femur_lat_meniscii_r.femur_lat_r.force.Z	femur_lat_meniscii_r.femur_lat_r.torque.X	femur_lat_meniscii_r.femur_lat_r.torque.Y	femur_lat_meniscii_r.femur_lat_r.torque.Z	femur_lat_meniscii_r.meniscus_lat_r.force.X	femur_lat_meniscii_r.meniscus_lat_r.force.Y	femur_lat_meniscii_r.meniscus_lat_r.force.Z	femur_lat_meniscii_r.meniscus_lat_r.torque.X	femur_lat_meniscii_r.meniscus_lat_r.torque.Y	femur_lat_meniscii_r.meniscus_lat_r.torque.Z	femur_med_meniscii_r.femur_med_r.force.X	femur_med_meniscii_r.femur_med_r.force.Y	femur_med_meniscii_r.femur_med_r.force.Z	femur_med_meniscii_r.femur_med_r.torque.X	femur_med_meniscii_r.femur_med_r.torque.Y	femur_med_meniscii_r.femur_med_r.torque.Z	femur_med_meniscii_r.meniscus_med_r.force.X	femur_med_meniscii_r.meniscus_med_r.force.Y	femur_med_meniscii_r.meniscus_med_r.force.Z	femur_med_meniscii_r.meniscus_med_r.torque.X	femur_med_meniscii_r.meniscus_med_r.torque.Y	femur_med_meniscii_r.meniscus_med_r.torque.Z	femur_med_tibia_r.tibia_upper_r.force.X	femur_med_tibia_r.tibia_upper_r.force.Y	femur_med_tibia_r.tibia_upper_r.force.Z	femur_med_tibia_r.tibia_upper_r.torque.X	femur_med_tibia_r.tibia_upper_r.torque.Y	femur_med_tibia_r.tibia_upper_r.torque.Z	femur_med_tibia_r.femur_med_r.force.X	femur_med_tibia_r.femur_med_r.force.Y	femur_med_tibia_r.femur_med_r.force.Z	femur_med_tibia_r.femur_med_r.torque.X	femur_med_tibia_r.femur_med_r.torque.Y	femur_med_tibia_r.femur_med_r.torque.Z	femur_lat_tibia_r.tibia_upper_r.force.X	femur_lat_tibia_r.tibia_upper_r.force.Y	femur_lat_tibia_r.tibia_upper_r.force.Z	femur_lat_tibia_r.tibia_upper_r.torque.X	femur_lat_tibia_r.tibia_upper_r.torque.Y	femur_lat_tibia_r.tibia_upper_r.torque.Z	femur_lat_tibia_r.femur_lat_r.force.X	femur_lat_tibia_r.femur_lat_r.force.Y	femur_lat_tibia_r.femur_lat_r.force.Z	femur_lat_tibia_r.femur_lat_r.torque.X	femur_lat_tibia_r.femur_lat_r.torque.Y	femur_lat_tibia_r.femur_lat_r.torque.Z	aACL_R	pACL_R	aPCL_R	pPCL_R	aMCL_R	mMCL_R	pMCL_R	aLCL_R	mLCL_R	pLCL_R	aPCL_L	pPCL_L	aMCL_L	aLCL_L
      0.10701210	      7.56151648	     11.42473071	     12.32008163	      5.21183092	      5.97182649	      6.62085328	    115.16077976	    168.22312238	    233.65729957	    368.68762625	    125.70416395	     11.41205567	      8.06679350	      0.00000000	      4.87184650	      8.58282476	      5.03776167	      0.00000000	    100.08865219	      7.38552518	     11.24978869	      8.49085777	     33.27061155	     25.05373611	      7.08726377	      4.60008490	      3.90102751	     39.00118369	      0.00000000	      0.00000000	      0.00000000	     21.83833840	      0.86354047	      0.00000000	      0.41741929	      2.74970192	      0.22418829	     30.42137110	      2.44502058	      3.82981222	      9.19819776	     17.33011331	      5.45041441	      7.56151648	     11.42473071	     12.32008163	      5.21183092	      5.97182649	      6.62085328	      0.00000000	      8.61676325	     14.92444855	     14.36171821	      2.96962076	     11.41205567	      8.06679350	      0.00000000	      4.87184650	      8.58282476	      6.90655018	      0.00000000	      3.08146327	      7.38552518	     11.24978869	      8.49085777	     33.27061155	     25.05373611	      7.08726377	      4.60008490	      3.90102751	     23.66796423	      0.00000000	      0.00000000	      0.00000000	     15.83860436	      8.27200279	     58.02210520	     57.87354880	      8.01011780	      7.41290933	     16.85402206	      9.52060613	     21.85534389	      3.86678660	     11.45890879	      3.87760765	     49.08949870	     49.08949870	     18.65316680	     18.65316680	     35.57310275	     35.57310275	     53.73626556	    258.34909004	     40.30622803	    -22.83310260	      1.40511367	     21.23722889	    -53.73626556	   -258.34909004	    -40.30622803	      7.99237503	     -1.92197453	      1.86133069	    -29.33641126	     54.97449006	      5.11248519	     -0.78487937	      0.69643392	    -12.01637256	     29.33641126	    -54.97449006	     -5.11248519	     -1.04867711	     -0.68244835	      1.34469052	    -84.73578650	   -505.33413142	    115.99842181	    -12.00862623	      2.19940536	      0.83939270	     84.73578650	    505.33413142	   -115.99842181	     57.46695767	     -1.23862684	     36.55302677	    -44.14373414	   -168.83452974	    -42.67468809	      5.77918734	     -1.56669204	      0.21979636	     44.14373414	    168.83452974	     42.67468809	    -21.72233825	      1.04751331	     18.32622114	     11.12278843	    -11.05234596	      0.00000000	     54.67427148	      0.00000000	      0.00000000	    -37.06828892	      0.00000000	      0.00000000	      0.00000000	      0.00000000	      0.00000000	      0.00000001	      0.00000000
      0.10771614	      8.25110135	     11.37077015	     12.26227847	      5.18799762	      5.94554494	      6.59585032	    114.89586374	    168.04247662	    232.16985521	    367.50067181	    125.85487323	     11.35733342	      8.03023483	      0.00000000	      4.85935011	      8.54101886	      5.03918153	      1.76805927	    100.13373336	      7.35080613	     11.19604364	      8.44977896	     33.16917262	     24.93825200	      7.07141078	      4.58348223	      4.03925993	     38.87018406	      0.00000000	      0.00000000	      0.00000000	     23.10617522	      0.82770046	      0.00000000	      0.00000000	      2.46205661	      0.06921137	     30.26766613	      2.65127505	      3.92391927	      9.26821239	     17.27142328	      5.42910299	      8.25110135	     11.37077015	     12.26227847	      5.18799762	      5.94554494	      6.59585032	      0.00000000	      8.57391090	     14.91900153	     14.29461826	      2.95610181	     11.35733342	      8.03023483	      0.00000000	      4.85935011	      8.54101886	      6.88196983	      1.76805927	      3.06720279	      7.35080613	     11.19604364	      8.44977896	     33.16917262	     24.93825200	      7.07141078	      4.58348223	      4.03925993	     23.56570419	      0.00000000	      0.00000000	      0.00000000	     16.10292439	      8.36964960	     58.06450382	     57.79833702	      7.93564804	      7.33338676	     16.83462311	      9.49135766	     21.82489268	      3.84919090	     11.53892191	      3.90400450	     48.86455100	     48.86455100	     18.56196583	     18.56196583	     35.48902694	     35.48902694	     51.53622443	    258.18698160	     40.51852504	    -22.91674810	      1.34321742	     20.28867651	    -51.53622443	   -258.18698160	    -40.51852504	      7.98653397	     -1.86001593	      1.99440296	    -29.35310162	     55.49095373	      5.87455395	     -1.09202113	      0.69314732	    -12.02821199	     29.35310162	    -55.49095373	     -5.87455395	     -1.03344815	     -0.68817845	      1.36104582	    -87.87578086	   -505.78196457	    115.50117818	    -12.00438628	      2.26144987	      0.79890661	     87.87578086	    505.78196457	   -115.50117818	     57.25827569	     -1.29766889	     37.85164201	    -42.03536105	   -161.93947156	    -41.07597926	      5.53972740	     -1.50414922	      0.25948510	     42.03536105	    161.93947156	     41.07597926	    -20.89187948	      1.00239226	     17.42938139	     10.67229956	    -11.39807233	      0.00000000	     55.58985121	      0.00000000	      0.00000000	    -37.07895591	      0.00000000	      0.00000000	      0.00000000	      0.00000000	      0.00000000	      0.00000001	      0.00000000
      0.10842018	      8.85334994	     11.31730427	     12.20492109	      5.16439316	      5.91951842	      6.57065635	    114.61088863	    167.86538695	    230.53396028	    366.04468993	    125.96403846	     11.30314284	      7.99402601	      0.00000000	      4.84615809	      8.49953223	      5.04059990	      2.73834803	    100.13959181	      7.31637014	     11.14281273	      8.40909764	     33.06873895	     24.82390521	      7.05342975	      4.56703248	      4.17034143	     38.73352000	      0.00000000	      0.00000000	      0.00000000	     24.46305516	      0.80092829	      0.00000000	      0.00000000	      2.17846830	      0.00000000	     30.11910084	      2.87234626	      4.03398557	      9.38315360	     17.22342450	      5.40836585	      8.85334994	     11.31730427	     12.20492109	      5.16439316	      5.91951842	      6.57065635	      0.00000000	      8.53147462	     14.91215094	     14.22816732	      2.94271245	     11.30314284	      7.99402601	      0.00000000	      4.84615809	      8.49953223	      6.85754358	      2.73834803	      3.05307976	      7.31637014	     11.14281273	      8.40909764	     33.06873895	     24.82390521	      7.05342975	      4.56703248	      4.17034143	     23.46362791	      0.00000000	      0.00000000	      0.00000000	     16.35700673	      8.46348197	     58.09794711	     57.72214360	      7.86253345	      7.25529386	     16.81350799	      9.46177765	     21.79366115	      3.83175786	     11.61371472	      3.92747097	     48.64176447	     48.64176447	     18.47164897	     18.47164897	     35.40579113	     35.40579113	     49.26738690	    257.69337276	     39.89444262	    -22.63436326	      1.27782891	     19.30994675	    -49.26738690	   -257.69337276	    -39.89444262	      7.93385102	     -1.78626450	      2.12853567	    -28.21475581	     56.03456128	      6.35295997	     -1.27783387	      0.66418443	    -11.55071589	     28.21475581	    -56.03456128	     -6.35295997	     -1.03104605	     -0.66799196	      1.33010534	    -91.50542003	   -505.71678246	    115.34695241	    -12.00173449	      2.33543850	      0.73526002	     91.50542003	    505.71678246	   -115.34695241	     57.18167763	     -1.36598257	     39.35665149	    -40.73633574	   -155.42292900	    -39.74929568	      5.32073901	     -1.46348013	      0.27044524	     40.73633574	    155.42292900	     39.74929568	    -20.18458779	      0.97476465	     16.87341393	     10.04373850	    -11.87591338	      0.00000000	     56.81248400	      0.00000000	      0.00000000	    -37.34348456	      0.00000000	      0.00000000	      0.00000000	      0.00000000	      0.00000000	      0.00000001	      0.00000000
      0.10912422	      9.38190528	     11.26433111	     12.14801579	      5.14101523	      5.89374434	      6.54529700	    114.29183006	    167.66933905	    228.73602663	    364.34091647	    126.03336933	     11.24947853	      7.95816350	      0.00000000	      4.83233540	      8.45836629	      5.04163119	      3.28866847	    100.10644319	      7.28221983	     11.09009169	      8.36881002	     32.96930003	     24.71068403	      7.03363845	      4.55073484	      4.29472165	     38.59241348	      0.00000000	      0.00000000	      0.00000000	     25.90342480	      0.78146298	      0.00000000	      0.00000000	      1.90041050	      0.00000000	     29.97479049	      3.10623333	      4.15718712	      9.43107979	     17.26877411	      5.38812148	      9.38190528	     11.26433111	     12.14801579	      5.14101523	      5.89374434	      6.54529700	      0.00000000	      8.48945019	     14.90391937	     14.16235882	      2.92945136	     11.24947853	      7.95816350	      0.00000000	      4.83233540	      8.45836629	      6.83327344	      3.28866847	      3.03909280	      7.28221983	     11.09009169	      8.36881002	     32.96930003	     24.71068403	      7.03363845	      4.55073484	      4.29472165	     23.36176573	      0.00000000	      0.00000000	      0.00000000	     16.60124678	      8.55362950	     58.12276286	     57.64500162	      7.79081437	      7.17869784	     16.79072763	      9.43188497	     21.76166288	      3.81448652	     11.68296008	      3.94791081	     48.42111734	     48.42111734	     18.38220744	     18.38220744	     35.32338642	     35.32338642	     47.83025742	    259.03246181	     40.02853246	    -22.72487425	      1.23905935	     18.68035383	    -47.83025742	   -259.03246181	    -40.02853246	      7.96830482	     -1.74873584	      2.25054763	    -27.45811748	     56.10145927	      7.02978834	     -1.55639553	      0.64820808	    -11.24008704	     27.45811748	    -56.10145927	     -7.02978834	     -1.01275036	     -0.66203393	      1.31542701	    -94.58236535	   -507.23732013	    115.60190809	    -12.03888133	      2.40349815	      0.71347620	     94.58236535	    507.23732013	   -115.60190809	     57.30519435	     -1.42273644	     40.62558108	    -39.68941244	   -150.53272497	    -38.33397829	      5.13826590	     -1.42761535	      0.28610038	     39.68941244	    150.53272497	     38.33397829	    -19.47599437	      0.95242402	     16.42460625	      9.34684926	    -12.38677421	      0.00000000	     58.31333320	      0.00000000	      0.00000000	    -37.71554589	      0.00000000	      0.00000000	      0.00000000	      0.00000000	      0.00000000	      0.00000001	      0.00000000
